<svg xmlns="http://www.w3.org/2000/svg" xmlns:xlink="http://www.w3.org/1999/xlink" version="1.1" x="0px" y="0px" viewBox="8.305 46.749 82.891 125" enable-background="new 8.305 46.749 82.891 100" xml:space="preserve"><path d="M91.195,75.805c0,11.062,0,51.328,0,51.328c0,2.654-0.442,5.162-1.475,7.669c-1.032,2.36-2.508,4.425-4.277,6.195  c-1.771,1.77-3.835,3.244-6.195,4.277c-2.507,0.885-5.015,1.475-7.669,1.475c0,0-39.086,0-45.428,0c-6.342,0-8.112-5.31-8.112-5.31  h53.54c7.965,0,14.307-6.49,14.307-14.307V66.365C85.886,66.365,91.195,67.988,91.195,75.805z"/><path d="M70.842,54.271h-1.033v-4.573c0-1.622-1.18-2.95-2.802-2.95c-1.623,0-2.95,1.328-2.95,2.95v4.573H55.06v-4.573  c0-1.622-1.18-2.95-2.802-2.95c-1.623,0-2.95,1.328-2.95,2.95v4.573h-8.997v-4.573c0-1.622-1.328-2.95-2.95-2.95  c-1.623,0-2.803,1.328-2.803,2.95v4.573h-8.997v-4.573c0-1.622-1.327-2.95-2.95-2.95s-2.802,1.328-2.802,2.95v4.573h-2.507  c-5.015,0-8.997,4.13-8.997,8.997v64.602c0,5.015,3.982,8.997,8.997,8.997h55.015c5.015,0,8.997-3.982,8.997-8.997V63.269  C81.313,58.401,75.856,54.271,70.842,54.271z M22.611,65.775c-3.097,0-5.752-2.654-5.752-5.899c0-2.065,1.327-3.982,2.95-5.015  v5.015c0,1.622,1.18,2.95,2.802,2.95s2.95-1.328,2.95-2.95v-5.015c1.77,1.032,2.95,2.949,2.95,5.015  C28.511,63.121,25.856,65.775,22.611,65.775z M37.361,65.775c-3.245,0-5.752-2.654-5.752-5.899c0-2.065,1.18-3.982,2.95-5.015v5.015  c0,1.622,1.18,2.95,2.803,2.95c1.622,0,2.95-1.328,2.95-2.95v-5.015c1.77,1.032,2.95,2.949,2.95,5.015  C43.26,63.121,40.605,65.775,37.361,65.775z M52.258,65.775c-3.245,0-5.9-2.654-5.9-5.899c0-2.065,1.18-3.982,2.95-5.015v5.015  c0,1.622,1.327,2.95,2.95,2.95c1.622,0,2.802-1.328,2.802-2.95v-5.015c1.771,1.032,2.95,2.949,2.95,5.015  C58.01,63.121,55.502,65.775,52.258,65.775z M67.007,65.775c-3.245,0-5.899-2.654-5.899-5.899c0-2.065,1.18-3.982,2.949-5.015v5.015  c0,1.622,1.327,2.95,2.95,2.95c1.622,0,2.802-1.328,2.802-2.95v-5.015c1.623,1.032,2.95,2.949,2.95,5.015  C72.759,63.121,70.104,65.775,67.007,65.775z"/><text x="8.305" y="161.749" fill="#000000" font-size="5px" font-weight="bold" font-family="'Helvetica Neue', Helvetica, Arial-Unicode, Arial, Sans-serif">Created by John Caserta</text><text x="8.305" y="166.749" fill="#000000" font-size="5px" font-weight="bold" font-family="'Helvetica Neue', Helvetica, Arial-Unicode, Arial, Sans-serif">from the Noun Project</text></svg>